<svg xmlns="http://www.w3.org/2000/svg" width="159.915" height="47.203" viewBox="0 0 159.915 47.203">
  <g id="Logo" transform="translate(0.5 0.533)">
    <g id="logo-group" transform="translate(42.592 13.029)">
      <g id="logo-center">
        <g id="title">
          <path id="path446952" d="M823.291-108.475h-2.285v-.418a3.679,3.679,0,0,1,2.675-3.595,1.188,1.188,0,0,0,.892-1.143,1.17,1.17,0,0,0-1.477-1.115,6.043,6.043,0,0,0-4.4,5.852v.418H817.55a1,1,0,0,0-1,1,1.006,1.006,0,0,0,1,1.031h1.143v10.311a1.023,1.023,0,0,0,1.031,1H820a1,1,0,0,0,1-1V-106.44h2.285a1.006,1.006,0,0,0,1-1.031,1,1,0,0,0-1-1Z" transform="translate(-816.547 114.784)" fill="#170000" stroke="#170000" stroke-miterlimit="2" stroke-width="1"/>
          <path id="path446954" d="M877.751-87.706a7.561,7.561,0,0,0-7.441,7.664,7.554,7.554,0,0,0,7.441,7.636,7.554,7.554,0,0,0,7.441-7.636A7.561,7.561,0,0,0,877.751-87.706Zm0,12.986a5.248,5.248,0,0,1-5.128-5.323,5.255,5.255,0,0,1,5.128-5.351,5.237,5.237,0,0,1,5.128,5.351A5.23,5.23,0,0,1,877.751-74.72Z" transform="translate(-861.103 92.343)" fill="#170000" stroke="#170000" stroke-miterlimit="2" stroke-width="1"/>
          <path id="path446956" d="M979.769-87.706a7.561,7.561,0,0,0-7.441,7.664,7.554,7.554,0,0,0,7.441,7.636,7.554,7.554,0,0,0,7.441-7.636A7.561,7.561,0,0,0,979.769-87.706Zm0,12.986a5.248,5.248,0,0,1-5.128-5.323,5.255,5.255,0,0,1,5.128-5.351,5.237,5.237,0,0,1,5.128,5.351A5.23,5.23,0,0,1,979.769-74.72Z" transform="translate(-945.65 92.343)" fill="#170000" stroke="#170000" stroke-miterlimit="2" stroke-width="1"/>
          <path id="path446958" d="M1088.086-113.9a1.172,1.172,0,0,0-1.17,1.143v5.462a7.272,7.272,0,0,0-5.128-2.118,7.561,7.561,0,0,0-7.441,7.664,7.554,7.554,0,0,0,7.441,7.636,7.272,7.272,0,0,0,5.128-2.118v.7a1.172,1.172,0,0,0,1.17,1.143,1.148,1.148,0,0,0,1.143-1.143v-17.222A1.148,1.148,0,0,0,1088.086-113.9Zm-6.3,17.473a5.248,5.248,0,0,1-5.128-5.323,5.255,5.255,0,0,1,5.128-5.351,5.237,5.237,0,0,1,5.128,5.351A5.23,5.23,0,0,1,1081.788-96.431Z" transform="translate(-1030.196 114.055)" fill="#170000" stroke="#170000" stroke-miterlimit="2" stroke-width="1"/>
          <path id="path446960" d="M1195.7-80.042a7.561,7.561,0,0,0-7.441-7.664,7.561,7.561,0,0,0-7.441,7.664,7.554,7.554,0,0,0,7.441,7.636,7.272,7.272,0,0,0,5.128-2.118v.7a1.172,1.172,0,0,0,1.17,1.143,1.148,1.148,0,0,0,1.143-1.143Zm-7.441,5.323a5.248,5.248,0,0,1-5.128-5.323,5.255,5.255,0,0,1,5.128-5.351,5.237,5.237,0,0,1,5.128,5.351A5.23,5.23,0,0,1,1188.254-74.72Z" transform="translate(-1118.429 92.343)" fill="#170000" stroke="#170000" stroke-miterlimit="2" stroke-width="1"/>
          <path id="path446962" d="M1294.181-87.706a6.62,6.62,0,0,0-6.521,6.688v7.19a1.166,1.166,0,0,0,1.143,1.143,1.172,1.172,0,0,0,1.17-1.143v-7.19a4.3,4.3,0,0,1,4.208-4.375,4.3,4.3,0,0,1,4.208,4.375v7.19a1.148,1.148,0,0,0,1.143,1.143,1.172,1.172,0,0,0,1.171-1.143v-7.19A6.62,6.62,0,0,0,1294.181-87.706Z" transform="translate(-1206.977 92.343)" fill="#170000" stroke="#170000" stroke-miterlimit="2" stroke-width="1"/>
          <path id="path446964" d="M1383.135-110.727a1.606,1.606,0,0,0,1.588-1.588,1.606,1.606,0,0,0-1.588-1.588,1.606,1.606,0,0,0-1.588,1.588A1.606,1.606,0,0,0,1383.135-110.727Zm0,1.895a1.13,1.13,0,0,0-1.143,1.143v12.15a1.148,1.148,0,0,0,1.143,1.143,1.148,1.148,0,0,0,1.143-1.143v-12.15A1.13,1.13,0,0,0,1383.135-108.832Z" transform="translate(-1284.785 114.055)" fill="#170000" stroke="#170000" stroke-miterlimit="2" stroke-width="1"/>
          <path id="path446966" d="M1429-77.172a1.259,1.259,0,0,0-.948.474,4.949,4.949,0,0,1-3.985,1.979,5.248,5.248,0,0,1-5.128-5.323,5.255,5.255,0,0,1,5.128-5.351,5.029,5.029,0,0,1,3.985,1.979,1.175,1.175,0,0,0,.948.474,1.146,1.146,0,0,0,.92-1.839,7.364,7.364,0,0,0-5.852-2.926,7.561,7.561,0,0,0-7.441,7.664,7.554,7.554,0,0,0,7.441,7.636,7.42,7.42,0,0,0,5.852-2.9A1.166,1.166,0,0,0,1429-77.172Z" transform="translate(-1313.86 92.343)" fill="#170000" stroke="#170000" stroke-miterlimit="2" stroke-width="1"/>
        </g>
      </g>
    </g>
    <g id="Group_1" data-name="Group 1">
      <path id="Subtraction_1" data-name="Subtraction 1" d="M16.093,46h0c-.065-.058-1.612-1.44-3.721-3.76C11.32,41.076,10.4,40,9.562,38.944,5.2,33.481,0,25.156,0,16.517A16.743,16.743,0,0,1,4.236,5.333,15.887,15.887,0,0,1,14.63.05c.178-.019.366-.035.593-.05.385,7.2.3,11.175-.248,12.168a15.039,15.039,0,0,1-2.1,2.611c-2.458,2.674-5.517,6-4.026,11.635a19.818,19.818,0,0,0,3.613,7.842A5.108,5.108,0,0,0,16.3,36.361a5.1,5.1,0,0,0,3.831-2.105,19.855,19.855,0,0,0,3.618-7.842c1.486-5.632-1.573-8.96-4.031-11.634a15.04,15.04,0,0,1-2.1-2.612c-.55-.99-.632-4.958-.249-12.131l.042,0c.112.006.227.013.337.025A15.9,15.9,0,0,1,28.006,5.4a16.759,16.759,0,0,1,4.178,11.118A27.971,27.971,0,0,1,29.67,27.585,48.605,48.605,0,0,1,24.138,37a63.918,63.918,0,0,1-8.045,8.995Z" fill="#ff3449" stroke="rgba(0,0,0,0)" stroke-miterlimit="10" stroke-width="1"/>
      <g id="Group_2" data-name="Group 2" transform="translate(9.888 15.544)" style="isolation: isolate">
        <g id="Group_1-2" data-name="Group 1" transform="translate(0 0)" style="isolation: isolate">
          <path id="Path_124" data-name="Path 124" d="M78.373,91.265a16.415,16.415,0,0,1,1.711-11.789.13.13,0,0,0-.035-.165.122.122,0,0,0-.164.018c-2.316,2.6-4.707,5.942-3.332,11.151a23.191,23.191,0,0,0,2.888,6.959.3.3,0,0,0,.385.1.313.313,0,0,0,.145-.38A43.743,43.743,0,0,1,78.373,91.265Z" transform="translate(-76.149 -79.287)" fill="#ff3449"/>
        </g>
      </g>
    </g>
  </g>
</svg>
